# xmcd
#
# Track frame offsets:
#	150
#	24734
#	37825
#	54349
#	67013
#	88379
#	104736
#	118811
#	137588
#	152892
#	169369
#	191444
#	207609
#	220216
#	233061
#	251689
#	265754
#
# Disc length: 3693 seconds
#
# Revision: 0
# Processed by: cddbd v1.5.1PL0 Copyright (c) Steve Scherf et al.
# Submitted via: audiograbber 1.83.01
#
DISCID=020e6b11
DTITLE=Cartouche - Cartouche dans le Moulin
DYEAR=2003
DGENRE=Ballad
TTITLE0=La Ronde des Saisons Mix
TTITLE1=Rock Amadour (15 mix)
TTITLE2=La Sortie de secour (13 mix)
TTITLE3=La Dame de Haute-Savoie (12 mix)
TTITLE4=Pleuser
TTITLE5=Un homme heureux
TTITLE6=Femme, Femme, Femme  (5 Mix)
TTITLE7=Femme Libérée (5 Mix)
TTITLE8=Il est libre Max (14 mix)
TTITLE9=Mademoiselle chante le blues
TTITLE10=Foule Sentimentale (Mix 11)
TTITLE11=Oh Les Filles (16 mix)
TTITLE12=Les petites femmes de Pigalle (Pig Edits)
TTITLE13=Une seule Vie
TTITLE14=Champagne (Mix Wet)
TTITLE15=Les Champs-Eysées
TTITLE16=Le long de la rivière
EXTD=Live from Kresslemühle Augsburg
EXTT0=
EXTT1=
EXTT2=
EXTT3=
EXTT4=
EXTT5=
EXTT6=
EXTT7=
EXTT8=
EXTT9=
EXTT10=
EXTT11=
EXTT12=
EXTT13=
EXTT14=
EXTT15=
EXTT16=
PLAYORDER=
